<svg width="500" height="500" viewBox="0 0 500 500" fill="none" xmlns="http://www.w3.org/2000/svg">
<rect width="500" height="500" fill="black" style="fill:black;fill-opacity:1;"/>
<path d="M174.547 201V196.875L179.656 196.5C180.344 196.438 180.859 196.188 181.203 195.75C181.578 195.312 181.766 194.859 181.766 194.391V141.469L159.688 201H154.906L133.578 142.359V194.391C133.578 194.859 133.75 195.312 134.094 195.75C134.469 196.188 135 196.438 135.688 196.5L141.172 196.875V201H120.406V196.875L125.891 196.5C126.578 196.438 127.078 196.188 127.391 195.75C127.734 195.312 127.906 194.859 127.906 194.391V143.203C127.906 142.734 127.734 142.281 127.391 141.844C127.078 141.406 126.578 141.156 125.891 141.094L120.406 140.719V136.594H141.922V139.172L159.312 186.328L176.703 139.453V136.594H198.781V140.719L193.578 141.094C192.891 141.156 192.359 141.406 191.984 141.844C191.641 142.281 191.469 142.734 191.469 143.203V194.391C191.469 194.859 191.641 195.312 191.984 195.75C192.359 196.188 192.891 196.438 193.578 196.5L198.781 196.875V201H174.547ZM250.672 177.938C250.672 181.344 250.125 184.531 249.031 187.5C247.969 190.438 246.438 193 244.438 195.188C242.469 197.344 240.062 199.047 237.219 200.297C234.406 201.547 231.25 202.172 227.75 202.172C224.25 202.172 221.094 201.562 218.281 200.344C215.469 199.094 213.078 197.391 211.109 195.234C209.141 193.078 207.625 190.531 206.562 187.594C205.531 184.625 205.016 181.406 205.016 177.938C205.016 174.531 205.547 171.344 206.609 168.375C207.672 165.406 209.203 162.828 211.203 160.641C213.203 158.422 215.609 156.688 218.422 155.438C221.266 154.188 224.469 153.562 228.031 153.562C231.594 153.562 234.781 154.203 237.594 155.484C240.406 156.766 242.781 158.516 244.719 160.734C246.656 162.922 248.125 165.5 249.125 168.469C250.156 171.406 250.672 174.562 250.672 177.938ZM240.688 177.844C240.688 175.219 240.422 172.703 239.891 170.297C239.391 167.891 238.609 165.766 237.547 163.922C236.484 162.078 235.156 160.609 233.562 159.516C231.969 158.422 230.094 157.875 227.938 157.875C225.719 157.875 223.797 158.422 222.172 159.516C220.547 160.609 219.203 162.078 218.141 163.922C217.109 165.766 216.344 167.891 215.844 170.297C215.344 172.703 215.094 175.219 215.094 177.844C215.094 180.438 215.344 182.938 215.844 185.344C216.375 187.75 217.172 189.875 218.234 191.719C219.297 193.562 220.625 195.047 222.219 196.172C223.812 197.266 225.688 197.812 227.844 197.812C230.031 197.812 231.938 197.266 233.562 196.172C235.188 195.078 236.516 193.609 237.547 191.766C238.609 189.922 239.391 187.797 239.891 185.391C240.422 182.984 240.688 180.469 240.688 177.844ZM302.891 177.938C302.891 181.344 302.344 184.531 301.25 187.5C300.188 190.438 298.656 193 296.656 195.188C294.688 197.344 292.281 199.047 289.438 200.297C286.625 201.547 283.469 202.172 279.969 202.172C276.469 202.172 273.312 201.562 270.5 200.344C267.688 199.094 265.297 197.391 263.328 195.234C261.359 193.078 259.844 190.531 258.781 187.594C257.75 184.625 257.234 181.406 257.234 177.938C257.234 174.531 257.766 171.344 258.828 168.375C259.891 165.406 261.422 162.828 263.422 160.641C265.422 158.422 267.828 156.688 270.641 155.438C273.484 154.188 276.688 153.562 280.25 153.562C283.812 153.562 287 154.203 289.812 155.484C292.625 156.766 295 158.516 296.938 160.734C298.875 162.922 300.344 165.5 301.344 168.469C302.375 171.406 302.891 174.562 302.891 177.938ZM292.906 177.844C292.906 175.219 292.641 172.703 292.109 170.297C291.609 167.891 290.828 165.766 289.766 163.922C288.703 162.078 287.375 160.609 285.781 159.516C284.188 158.422 282.312 157.875 280.156 157.875C277.938 157.875 276.016 158.422 274.391 159.516C272.766 160.609 271.422 162.078 270.359 163.922C269.328 165.766 268.562 167.891 268.062 170.297C267.562 172.703 267.312 175.219 267.312 177.844C267.312 180.438 267.562 182.938 268.062 185.344C268.594 187.75 269.391 189.875 270.453 191.719C271.516 193.562 272.844 195.047 274.438 196.172C276.031 197.266 277.906 197.812 280.062 197.812C282.25 197.812 284.156 197.266 285.781 196.172C287.406 195.078 288.734 193.609 289.766 191.766C290.828 189.922 291.609 187.797 292.109 185.391C292.641 182.984 292.906 180.469 292.906 177.844ZM342.734 201V195.891C341.641 196.734 340.5 197.547 339.312 198.328C338.156 199.078 336.953 199.734 335.703 200.297C334.484 200.859 333.219 201.312 331.906 201.656C330.625 202 329.281 202.172 327.875 202.172C324.656 202.172 321.875 201.484 319.531 200.109C317.219 198.703 315.312 196.906 313.812 194.719C312.312 192.5 311.203 190.031 310.484 187.312C309.797 184.562 309.453 181.828 309.453 179.109C309.453 175.859 309.953 172.703 310.953 169.641C311.953 166.547 313.469 163.812 315.5 161.438C317.531 159.062 320.078 157.156 323.141 155.719C326.203 154.281 329.797 153.562 333.922 153.562C334.672 153.562 335.484 153.609 336.359 153.703C337.234 153.797 338.078 153.906 338.891 154.031C339.734 154.125 340.484 154.25 341.141 154.406C341.828 154.531 342.359 154.641 342.734 154.734V137.156H335.469V133.969L347.844 130.266H351.688V194.859C351.688 195.453 351.875 195.938 352.25 196.312C352.625 196.688 353.109 196.906 353.703 196.969L357.828 197.25V201H342.734ZM342.734 159.609C342.328 159.484 341.797 159.344 341.141 159.188C340.516 159 339.828 158.844 339.078 158.719C338.359 158.562 337.594 158.438 336.781 158.344C336 158.25 335.266 158.203 334.578 158.203C332.203 158.203 330.047 158.672 328.109 159.609C326.172 160.516 324.516 161.812 323.141 163.5C321.797 165.156 320.75 167.172 320 169.547C319.281 171.922 318.922 174.562 318.922 177.469C318.922 180.094 319.234 182.516 319.859 184.734C320.484 186.922 321.391 188.828 322.578 190.453C323.766 192.078 325.219 193.344 326.938 194.25C328.656 195.156 330.625 195.609 332.844 195.609C333.812 195.609 334.75 195.516 335.656 195.328C336.562 195.109 337.438 194.844 338.281 194.531C339.125 194.188 339.922 193.828 340.672 193.453C341.422 193.047 342.109 192.656 342.734 192.281V159.609ZM138.13 260.712V256.776H185.938L186.61 273.768H181.138L179.026 261.576H156.466C156.402 265.672 156.338 269.768 156.274 273.864C156.274 277.96 156.274 281.992 156.274 285.96H171.154L172.498 276.84H176.914V300.456H172.498L171.154 290.472H156.274C156.274 295.208 156.274 299.656 156.274 303.816C156.338 307.976 156.402 312.04 156.466 316.008L165.394 317.064V321H138.13V317.064L146.962 316.008C147.09 311.976 147.154 307.88 147.154 303.72C147.154 299.56 147.154 295.4 147.154 291.24V286.536C147.154 282.376 147.154 278.248 147.154 274.152C147.154 269.992 147.09 265.864 146.962 261.768L138.13 260.712ZM191.9 321V317.544L199.58 316.2C199.644 313.576 199.676 311.016 199.676 308.52C199.74 305.96 199.772 303.4 199.772 300.84V258.696L191.9 257.736V254.376L206.876 250.056L208.22 250.824L207.836 264.456V300.84C207.836 303.4 207.836 305.96 207.836 308.52C207.9 311.08 207.964 313.64 208.028 316.2L215.708 317.544V321H191.9ZM244.398 322.248C240.686 322.248 237.134 321.384 233.742 319.656C230.414 317.864 227.694 315.208 225.582 311.688C223.47 308.104 222.414 303.688 222.414 298.44C222.414 293.128 223.47 288.68 225.582 285.096C227.694 281.448 230.414 278.728 233.742 276.936C237.134 275.08 240.686 274.152 244.398 274.152C248.11 274.152 251.63 275.08 254.958 276.936C258.35 278.728 261.102 281.448 263.214 285.096C265.39 288.68 266.478 293.128 266.478 298.44C266.478 303.688 265.39 308.104 263.214 311.688C261.102 315.208 258.35 317.864 254.958 319.656C251.63 321.384 248.11 322.248 244.398 322.248ZM244.398 317.928C248.558 317.928 251.758 316.296 253.998 313.032C256.238 309.704 257.358 304.84 257.358 298.44C257.358 291.976 256.238 287.048 253.998 283.656C251.758 280.264 248.558 278.568 244.398 278.568C240.238 278.568 237.038 280.264 234.798 283.656C232.622 287.048 231.534 291.976 231.534 298.44C231.534 304.84 232.622 309.704 234.798 313.032C237.038 316.296 240.238 317.928 244.398 317.928ZM325.597 279.144V275.4H343.165V279.144L337.981 280.392L323.965 321.576H320.413L307.933 287.496L295.261 321.576H291.709L276.253 280.104L270.781 279.144V275.4H292.669V279.144L285.181 280.296L295.069 309.768L305.821 280.296L298.717 279.144V275.4H319.933V279.144L312.829 280.392L323.773 309.672L332.701 280.488L325.597 279.144Z" fill="white" style="fill:white;fill-opacity:1;"/>
</svg>
