<?xml version="1.0" encoding="UTF-8"?>
<svg version="1.1" xmlns="http://www.w3.org/2000/svg" width="500" height="500">
<path d="M0 0 C165 0 330 0 500 0 C500 165 500 330 500 500 C335 500 170 500 0 500 C0 335 0 170 0 0 Z " fill="#FEFEFE" transform="translate(0,0)"/>
<path d="M0 0 C114.84 0 229.68 0 348 0 C348 31.68 348 63.36 348 96 C233.16 96 118.32 96 0 96 C0 64.32 0 32.64 0 0 Z " fill="#FDFDFD" transform="translate(76,202)"/>
<path d="M0 0 C54.45 0 108.9 0 165 0 C165 25.74 165 51.48 165 78 C110.55 78 56.1 78 0 78 C0 52.26 0 26.52 0 0 Z " fill="#010101" transform="translate(85,211)"/>
<path d="M0 0 C114.84 0 229.68 0 348 0 C348 31.68 348 63.36 348 96 C233.16 96 118.32 96 0 96 C0 64.32 0 32.64 0 0 Z M2 3 C2 32.7 2 62.4 2 93 C115.19 93 228.38 93 345 93 C345 63.3 345 33.6 345 3 C231.81 3 118.62 3 2 3 Z " fill="#020202" transform="translate(76,202)"/>
<path d="M0 0 C3.3 0 6.6 0 10 0 C10.67220351 1.93558599 11.33758077 3.87354372 12 5.8125 C12.556875 7.43091797 12.556875 7.43091797 13.125 9.08203125 C14 12 14 12 14 15 C14.66 15 15.32 15 16 15 C16.12117188 14.41992188 16.24234375 13.83984375 16.3671875 13.2421875 C17.33735474 8.71971558 18.43397783 4.36249034 20 0 C22.97 0 25.94 0 29 0 C31 5 33 10 35 15 C36.65 10.05 38.3 5.1 40 0 C43.3 0 46.6 0 50 0 C46.80256989 10.71139086 43.58906651 21.41225379 40 32 C36.7 32 33.4 32 30 32 C27.525 24.575 27.525 24.575 25 17 C24.38125 18.546875 23.7625 20.09375 23.125 21.6875 C21.75 25.125 20.375 28.5625 19 32 C16.03 32 13.06 32 10 32 C0 6.03333333 0 6.03333333 0 0 Z " fill="#080808" transform="translate(357,233)"/>
<path d="M0 0 C4.01684726 2.93915653 6.95784056 6.06102168 8.5625 10.875 C9.09541566 17.16340477 8.36436157 21.71451522 4.5625 26.875 C-0.77016886 31.51210336 -6.178323 31.5969787 -13.11328125 31.390625 C-18.00776007 30.6314344 -20.52438653 28.79511566 -23.4375 24.875 C-26.43581754 20.42588365 -27.35867406 16.1666332 -26.4375 10.875 C-21.98783331 -0.91900903 -11.27406478 -3.68969393 0 0 Z " fill="#080808" transform="translate(346.4375,234.125)"/>
<path d="M0 0 C4.64586577 1.73081274 7.47824791 3.70368162 10 8 C11.22687986 12.54617811 11.39558502 15.93192044 9.75 20.375 C7.36275006 23.95587491 6.11719457 25.62760181 2 27 C-8.35149422 28.13752684 -8.35149422 28.13752684 -12.5625 24.8125 C-15.89710615 20.96487752 -16.82619386 18.59322292 -17.375 13.5625 C-16.78688714 7.97542783 -14.40354499 5.18521577 -10.1875 1.625 C-6.37985365 -0.31615304 -4.22575274 -0.52821909 0 0 Z " fill="#040404" transform="translate(156,235)"/>
<path d="M0 0 C4.18693276 3.53563211 6.55895309 6.3466247 7.25 11.875 C6.62857571 16.84639432 5.01793249 19.89737308 1.875 23.75 C-2.98049437 26.32638477 -7.81208561 26.1269624 -13.1875 25.375 C-16.70871839 23.33269333 -17.93967677 21.74673484 -20.1875 18.375 C-20.82542797 13.72148335 -21.24567332 8.67062393 -19.2421875 4.32421875 C-14.3184066 -1.9156671 -7.08185238 -3.61035612 0 0 Z " fill="#050505" transform="translate(194.1875,236.625)"/>
<path d="M0 0 C14.85714286 0 14.85714286 0 20 4 C22.83317282 8.24975924 22.52685201 12.01087108 22 17 C20.54385098 20.25900019 18.74482692 22.71264424 16 25 C13 26 13 26 0 26 C0 17.42 0 8.84 0 0 Z " fill="#080808" transform="translate(210,236)"/>
<path d="M0 0 C6.93 0 13.86 0 21 0 C21 2.64 21 5.28 21 8 C17.04 8 13.08 8 9 8 C9 10.31 9 12.62 9 15 C12.63 15 16.26 15 20 15 C20 17.64 20 20.28 20 23 C16.7 23 13.4 23 10 23 C10 25.97 10 28.94 10 32 C6.7 32 3.4 32 0 32 C0 21.44 0 10.88 0 0 Z " fill="#0D0D0D" transform="translate(269,233)"/>
<path d="M0 0 C3.3 0 6.6 0 10 0 C10 7.59 10 15.18 10 23 C14.29 23 18.58 23 23 23 C23 25.97 23 28.94 23 32 C15.41 32 7.82 32 0 32 C0 21.44 0 10.88 0 0 Z " fill="#141414" transform="translate(295,233)"/>
<path d="M0 0 C1.32 0 2.64 0 4 0 C5.78574043 2.31791473 7.26882294 4.50081525 8.75 7 C9.36681641 8.00160156 9.36681641 8.00160156 9.99609375 9.0234375 C11.01028343 10.67444395 12.00684598 12.3362548 13 14 C16.20248658 10.11422426 18.85050383 6.10228574 21.4375 1.79296875 C21.953125 1.20128906 22.46875 0.60960937 23 0 C24.32 0 25.64 0 27 0 C27 8.58 27 17.16 27 26 C25.68 26 24.36 26 23 26 C22.67 20.39 22.34 14.78 22 9 C19.69 12.3 17.38 15.6 15 19 C11 18 11 18 9.078125 15.49609375 C6.5390625 11.24804688 6.5390625 11.24804688 4 7 C3.67 13.27 3.34 19.54 3 26 C2.01 26 1.02 26 0 26 C0 17.42 0 8.84 0 0 Z " fill="#EBEBEB" transform="translate(104,236)"/>
<path d="M0 0 C4.64586577 1.73081274 7.47824791 3.70368162 10 8 C11.22687986 12.54617811 11.39558502 15.93192044 9.75 20.375 C7.36275006 23.95587491 6.11719457 25.62760181 2 27 C-8.35149422 28.13752684 -8.35149422 28.13752684 -12.5625 24.8125 C-15.89710615 20.96487752 -16.82619386 18.59322292 -17.375 13.5625 C-16.78688714 7.97542783 -14.40354499 5.18521577 -10.1875 1.625 C-6.37985365 -0.31615304 -4.22575274 -0.52821909 0 0 Z M-11.0625 6.5625 C-13.29929942 10.5310151 -13.65201862 12.51737197 -13 17 C-11.34860695 20.5386994 -10.28394771 21.81070153 -7 24 C-2.03504727 24.45971784 1.06167696 24.15065843 5 21 C7.56570589 17.57905881 7.43708054 14.15226516 7 10 C5.20437595 7.24670979 3.94745078 5.47372539 1 4 C-4.06976389 3.21314077 -7.03410395 3.19180127 -11.0625 6.5625 Z " fill="#E5E5E5" transform="translate(156,235)"/>
<path d="M0 0 C4.18693276 3.53563211 6.55895309 6.3466247 7.25 11.875 C6.62857571 16.84639432 5.01793249 19.89737308 1.875 23.75 C-2.98049437 26.32638477 -7.81208561 26.1269624 -13.1875 25.375 C-16.70871839 23.33269333 -17.93967677 21.74673484 -20.1875 18.375 C-20.82542797 13.72148335 -21.24567332 8.67062393 -19.2421875 4.32421875 C-14.3184066 -1.9156671 -7.08185238 -3.61035612 0 0 Z M-16.1875 6.375 C-17.7422669 9.48453379 -17.47394437 11.93766761 -17.1875 15.375 C-14.9287063 19.61528619 -14.9287063 19.61528619 -11.1875 22.375 C-6.19058353 22.75212577 -3.19682275 22.46790612 0.8125 19.375 C3.48946661 15.35955008 3.73767507 12.09174075 2.8125 7.375 C0.22748142 4.20835224 -1.24746956 2.7985544 -5.19140625 1.9375 C-10.12844093 1.63771801 -12.8079584 2.89304805 -16.1875 6.375 Z " fill="#E9E9E9" transform="translate(194.1875,236.625)"/>
<path d="M0 0 C14.85714286 0 14.85714286 0 20 4 C22.83317282 8.24975924 22.52685201 12.01087108 22 17 C20.54385098 20.25900019 18.74482692 22.71264424 16 25 C13 26 13 26 0 26 C0 17.42 0 8.84 0 0 Z M3 3 C3 9.6 3 16.2 3 23 C10.80085913 23.21815685 10.80085913 23.21815685 17 20 C18.95215511 17.51543895 19.03368661 15.73531953 19.4375 12.5625 C18.88882608 8.09472668 17.39808207 6.81792171 14 4 C13.67 3.67 13.34 3.34 13 3 C9.7 3 6.4 3 3 3 Z " fill="#F6F6F6" transform="translate(210,236)"/>
<path d="M0 0 C2.4375 1.5 2.4375 1.5 4 4 C4.80414661 8.04560357 4.63828902 10.97873756 2.4375 14.5 C-0.94888329 16.58392818 -3.09385318 16.55802097 -7 16 C-9.4375 14.5 -9.4375 14.5 -11 12 C-11.80414661 7.95439643 -11.63828902 5.02126244 -9.4375 1.5 C-6.05111671 -0.58392818 -3.90614682 -0.55802097 0 0 Z " fill="#F8F8F8" transform="translate(341,241)"/>
</svg>
